 <svg  version="1.0" xmlns="http://www.w3.org/2000/svg"  width="900.000000pt" height="912.000000pt" viewBox="0 0 900.000000 912.000000"  preserveAspectRatio="xMidYMid meet">  <g transform="translate(0.000000,912.000000) scale(0.100000,-0.100000)" fill="#0f1eeb" stroke="none"> <path d="M4230 9079 c-510 -14 -1138 -175 -1635 -420 -565 -277 -1029 -635 -1431 -1104 -60 -70 -113 -134 -118 -143 -5 -10 -25 -36 -45 -58 -20 -23 -46 -57 -59 -75 -12 -19 -43 -63 -68 -97 -64 -90 -190 -293 -238 -382 -75 -142 -166 -325 -166 -333 0 -5 -11 -33 -25 -64 -131 -286 -266 -738 -314 -1053 -40 -262 -51 -362 -60 -560 -15 -343 4 -718 51 -960 6 -30 14 -82 19 -115 27 -206 144 -611 250 -866 28 -68 58 -142 67 -164 31 -76 165 -341 229 -450 170 -292 324 -502 554 -756 38 -41 77 -87 88 -100 10 -14 102 -100 203 -191 244 -222 472 -394 706 -534 170 -101 233 -134 472 -247 151 -71 435 -174 610 -222 36 -9 85 -23 110 -30 42 -12 143 -34 250 -55 25 -5 88 -14 140 -20 52 -6 113 -15 135 -20 22 -5 151 -14 287 -21 195 -10 297 -10 480 0 128 7 252 16 276 22 24 5 96 16 160 24 140 18 197 28 277 50 33 9 110 29 170 45 651 171 1314 542 1830 1022 202 189 466 488 594 673 19 28 55 79 79 115 172 250 355 609 495 975 80 208 183 600 222 845 76 487 76 1050 -1 1505 -79 463 -214 885 -415 1291 -248 502 -552 913 -963 1302 -467 442 -1050 785 -1661 977 -82 26 -167 53 -188 61 -20 8 -49 14 -62 14 -14 0 -57 9 -97 20 -69 18 -239 48 -483 84 -124 18 -412 24 -725 15z m574 -59 c157 -10 298 -29 366 -50 19 -5 53 -10 76 -10 22 0 60 -6 85 -14 24 -8 71 -19 104 -26 54 -11 138 -33 290 -75 28 -8 59 -19 70 -24 11 -6 49 -20 85 -31 101 -33 237 -86 340 -132 256 -115 498 -256 775 -450 190 -133 517 -428 678 -612 29 -33 72 -82 97 -110 25 -28 79 -96 119 -151 41 -55 91 -122 112 -150 97 -132 287 -449 343 -575 16 -36 35 -74 42 -85 7 -11 26 -52 42 -90 16 -39 38 -90 49 -115 63 -139 176 -485 213 -650 4 -19 17 -71 28 -115 22 -85 47 -217 57 -300 4 -27 13 -95 20 -150 26 -181 37 -535 25 -778 -6 -122 -17 -260 -25 -307 -7 -47 -16 -110 -19 -140 -9 -80 -35 -223 -58 -315 -11 -44 -24 -98 -28 -120 -18 -95 -81 -295 -163 -522 -94 -258 -327 -708 -470 -908 -127 -178 -193 -266 -275 -365 -101 -121 -376 -402 -501 -511 -410 -357 -927 -652 -1448 -827 -243 -82 -342 -108 -563 -148 -186 -34 -272 -46 -460 -64 -143 -13 -574 -14 -655 0 -33 5 -89 10 -125 10 -36 0 -85 5 -109 11 -23 5 -68 14 -100 18 -197 32 -345 63 -476 100 -145 42 -388 124 -445 149 -25 11 -99 44 -165 73 -747 328 -1400 885 -1864 1588 -117 177 -113 172 -153 246 -18 33 -37 67 -43 76 -16 27 -131 258 -165 334 -146 325 -299 848 -341 1170 -55 426 -60 883 -14 1265 9 74 23 160 30 190 7 30 16 78 20 105 10 77 68 320 101 425 26 81 92 273 124 360 114 309 333 715 528 980 90 123 190 253 214 281 13 14 50 57 83 95 138 160 457 452 660 604 333 251 727 461 1128 601 59 21 113 41 119 45 5 4 24 10 42 14 17 4 67 18 111 30 162 45 319 81 392 90 41 5 79 12 84 16 17 10 128 25 289 38 195 16 518 19 724 6z"/> <path d="M4790 8740 c-13 -24 -4 -47 21 -55 30 -10 38 -35 28 -90 -6 -28 -14 -86 -20 -130 -21 -176 -36 -285 -40 -287 -2 -2 -17 -10 -34 -18 -31 -16 -41 -36 -27 -58 5 -6 46 -17 93 -22 46 -6 92 -13 101 -16 12 -4 22 3 30 20 10 23 8 29 -12 51 -21 23 -22 30 -16 107 13 162 37 205 105 194 55 -9 71 -30 71 -99 0 -33 -5 -89 -11 -125 -10 -55 -16 -67 -40 -81 -16 -9 -31 -22 -34 -28 -15 -40 34 -61 155 -65 72 -3 75 -2 78 21 3 15 -6 33 -24 52 l-28 29 13 108 c14 119 10 172 -19 220 -23 37 -84 57 -145 47 -83 -13 -80 -15 -80 35 1 25 5 75 9 112 10 79 6 82 -96 91 -60 6 -69 4 -78 -13z"/> <path d="M3455 8584 c-102 -32 -156 -48 -225 -68 -58 -15 -190 -63 -198 -70 -8 -9 28 -130 40 -138 19 -12 52 -10 66 4 7 7 12 26 12 43 0 35 39 65 83 65 28 0 35 -17 112 -265 41 -129 42 -151 14 -181 -14 -15 -19 -29 -14 -43 10 -32 31 -29 193 27 24 8 46 21 49 28 8 20 -16 44 -43 44 -33 0 -46 25 -100 195 -74 238 -72 225 -50 241 11 7 35 17 54 20 30 6 38 3 54 -20 22 -29 54 -34 83 -12 18 13 17 15 -7 82 -14 37 -29 69 -34 70 -5 2 -45 -8 -89 -22z"/> <path d="M4393 8546 c-103 -33 -146 -100 -147 -228 0 -142 70 -222 204 -234 56 -5 71 -2 109 18 53 28 92 88 75 115 -20 33 -61 28 -106 -12 -36 -33 -45 -37 -80 -32 -48 6 -64 26 -79 96 -23 111 17 201 90 201 47 0 71 -17 85 -61 9 -28 16 -35 43 -37 42 -4 58 27 49 90 -8 50 -23 63 -103 84 -65 17 -85 17 -140 0z"/> <path d="M3889 8513 c-33 -5 -100 -62 -128 -107 -17 -26 -21 -51 -22 -112 -1 -92 9 -122 57 -181 63 -77 131 -96 234 -63 87 27 115 49 106 84 -9 37 -29 41 -79 17 -72 -35 -141 -24 -168 26 -21 39 -2 56 82 70 161 28 154 25 157 61 5 54 -25 127 -69 166 -21 20 -47 36 -57 36 -9 0 -33 2 -52 4 -19 2 -47 2 -61 -1z m97 -108 c39 -39 29 -65 -31 -81 -84 -22 -95 -20 -95 21 0 43 37 85 75 85 14 0 37 -11 51 -25z"/> <path d="M5392 8448 c-18 -18 -15 -43 8 -63 29 -26 25 -74 -15 -189 -30 -87 -38 -101 -65 -112 -34 -15 -48 -39 -34 -61 14 -23 171 -67 199 -57 19 8 19 38 -1 68 -16 26 -18 12 30 186 19 69 47 94 96 86 37 -6 80 -45 80 -73 0 -15 -42 -154 -61 -201 -5 -12 -19 -26 -32 -31 -30 -12 -51 -37 -44 -55 3 -8 25 -20 49 -26 24 -6 60 -18 81 -26 79 -30 116 -8 84 48 -22 39 -21 57 8 157 59 199 11 293 -140 277 -57 -6 -62 -5 -72 17 -7 16 -30 29 -80 45 -81 26 -76 25 -91 10z"/> <path d="M2600 8313 c-49 -33 -73 -59 -92 -100 -18 -41 -18 -43 2 -95 25 -66 25 -76 -1 -104 -31 -33 -12 -64 40 -64 47 0 53 -7 122 -137 l54 -102 -18 -30 c-17 -29 -17 -31 3 -51 l21 -21 67 37 c37 21 80 44 95 52 60 30 45 77 -24 77 l-43 0 -58 105 c-31 58 -57 115 -58 127 0 13 12 30 31 43 20 15 29 29 27 43 -5 33 -31 43 -77 27 -49 -16 -59 -9 -68 45 -6 36 -3 41 33 71 35 30 37 35 28 61 -11 34 -47 40 -84 16z"/> <path d="M6050 8184 c-84 -36 -153 -148 -154 -251 -1 -53 3 -67 30 -105 59 -83 187 -122 278 -84 33 14 86 63 86 80 0 5 7 17 15 26 23 25 46 130 39 177 -18 124 -176 208 -294 157z m149 -100 c26 -21 31 -33 31 -68 0 -71 -27 -134 -73 -167 -46 -33 -72 -36 -107 -12 -35 24 -40 33 -40 78 0 82 78 195 135 195 13 0 37 -12 54 -26z"/> <path d="M6584 8179 c-3 -6 -1 -28 6 -49 15 -46 9 -74 -25 -120 -37 -50 -115 -174 -159 -253 -21 -38 -43 -70 -49 -72 -7 -2 -29 -6 -49 -10 -32 -5 -38 -10 -38 -30 0 -19 16 -34 85 -75 47 -28 93 -50 102 -48 27 5 40 35 25 58 -20 32 -13 61 28 125 22 33 49 78 61 100 12 22 30 51 39 65 52 74 128 198 134 216 14 45 -135 132 -160 93z"/> <path d="M2250 7849 c-83 -33 -130 -106 -129 -204 0 -95 50 -175 141 -229 71 -41 130 -37 209 17 36 24 70 57 81 77 24 47 24 141 -2 198 -25 56 -109 137 -150 146 -46 9 -121 6 -150 -5z m95 -89 c24 -9 59 -43 94 -93 7 -10 18 -37 22 -58 10 -44 1 -71 -35 -101 -60 -50 -158 16 -192 127 -12 40 -12 51 1 81 19 47 60 63 110 44z"/> <path d="M6763 7756 c-50 -23 -131 -104 -153 -154 -41 -92 -17 -189 62 -254 98 -81 211 -67 310 39 36 38 70 119 70 169 3 136 -169 254 -289 200z m155 -108 c30 -33 36 -69 18 -112 -21 -51 -50 -86 -98 -118 -52 -35 -70 -35 -110 1 -46 41 -45 89 5 158 65 89 140 118 185 71z"/> <path d="M4280 7730 c-64 -6 -138 -17 -315 -46 -99 -17 -273 -63 -375 -99 -208 -74 -327 -123 -405 -167 -11 -6 -47 -26 -80 -43 -501 -266 -970 -730 -1243 -1230 -43 -79 -162 -325 -162 -335 0 -4 -10 -29 -22 -56 -32 -74 -89 -234 -97 -279 -5 -22 -20 -84 -35 -137 -33 -123 -42 -167 -67 -353 -25 -177 -30 -617 -10 -770 21 -161 51 -339 65 -395 8 -30 22 -86 31 -125 31 -136 131 -395 223 -580 69 -138 198 -359 241 -412 14 -17 46 -60 71 -95 94 -132 301 -353 455 -487 114 -99 259 -211 274 -211 5 0 23 -11 39 -25 108 -91 455 -265 692 -348 192 -67 290 -90 615 -145 145 -24 608 -24 755 1 368 62 451 84 765 200 111 41 392 188 521 273 371 244 739 618 939 954 21 36 44 72 51 80 25 30 181 348 223 455 96 243 130 369 190 705 29 158 41 454 30 693 -14 284 -57 515 -149 805 -38 123 -56 171 -96 259 -8 17 -14 34 -14 38 0 14 -138 283 -185 360 -199 329 -456 627 -735 850 -179 143 -313 231 -535 349 -70 37 -210 99 -275 122 -39 13 -103 35 -142 49 -210 73 -437 120 -693 146 -94 9 -452 9 -545 -1z m645 -65 c180 -19 528 -108 689 -176 38 -16 73 -29 78 -29 8 0 175 -75 218 -99 217 -115 468 -284 590 -395 181 -166 362 -358 452 -481 73 -98 142 -198 158 -227 19 -35 98 -168 110 -188 15 -24 114 -237 147 -320 77 -187 112 -300 157 -510 101 -464 101 -906 1 -1380 -30 -143 -118 -412 -170 -525 -19 -41 -35 -76 -35 -79 0 -36 -210 -410 -298 -532 -185 -255 -397 -478 -632 -665 -65 -52 -107 -81 -249 -172 -354 -226 -821 -392 -1241 -439 -137 -15 -555 -15 -695 1 -289 32 -717 157 -950 277 -27 14 -88 45 -135 70 -99 50 -355 222 -462 309 -154 125 -417 402 -523 551 -62 88 -165 242 -165 248 0 3 -22 43 -49 88 -42 72 -102 193 -171 343 -39 85 -87 234 -155 480 -19 69 -41 187 -62 330 -14 93 -18 186 -18 410 0 289 6 365 47 575 6 30 14 75 18 100 9 46 21 95 59 230 31 114 35 126 85 250 104 256 258 543 387 719 377 514 935 925 1499 1103 335 105 511 136 865 151 72 3 366 -9 450 -18z"/> <path d="M1966 5214 c-3 -9 -6 -44 -6 -78 0 -70 17 -96 61 -96 14 0 35 -7 47 -16 l22 -15 0 -415 c0 -466 4 -444 -76 -459 -21 -4 -42 -12 -46 -18 -13 -20 -9 -142 4 -155 14 -14 504 -17 525 -4 13 8 21 142 9 161 -4 5 -23 13 -44 17 -60 11 -72 28 -72 103 l0 66 79 79 c66 66 83 78 103 72 21 -5 64 -59 141 -176 17 -25 41 -57 54 -71 15 -17 23 -36 21 -50 -2 -20 -10 -25 -48 -29 l-45 -5 -3 -79 c-2 -57 1 -82 10 -87 17 -11 559 -11 576 0 9 5 12 30 10 86 l-3 79 -57 14 c-61 15 -88 40 -178 165 -19 26 -48 65 -65 87 -16 21 -55 73 -85 115 -30 42 -70 95 -87 117 -18 22 -33 46 -33 53 0 7 64 75 143 152 205 202 203 200 257 213 27 6 54 18 61 26 16 19 15 130 -1 149 -10 13 -56 15 -279 15 -201 0 -272 -3 -285 -13 -13 -9 -17 -27 -17 -76 0 -35 3 -67 8 -72 5 -5 29 -13 54 -17 77 -13 68 -28 -122 -214 -96 -92 -181 -167 -189 -166 -12 3 -15 31 -18 170 -3 179 2 198 51 198 13 0 33 7 45 16 19 13 22 24 22 88 0 58 -3 75 -16 80 -9 3 -130 6 -269 6 -221 0 -254 -2 -259 -16z"/> <path d="M3356 5217 c-15 -11 -17 -24 -13 -81 3 -37 9 -72 14 -77 6 -6 32 -15 59 -22 l49 -12 0 -435 0 -434 -55 -16 c-67 -19 -78 -41 -64 -127 l9 -58 255 -3 c201 -2 260 1 274 11 21 15 32 116 16 146 -5 10 -30 24 -57 30 -26 7 -53 17 -60 23 -17 13 -19 818 -3 849 7 11 26 21 50 25 60 10 69 21 75 93 8 105 18 101 -280 101 -191 0 -255 -3 -269 -13z"/> <path d="M3982 5218 c-8 -8 -12 -61 -12 -175 0 -191 -5 -183 118 -183 91 0 112 13 112 73 0 56 19 67 111 67 76 0 80 -1 89 -26 16 -40 13 -786 -2 -807 -7 -10 -35 -23 -63 -30 -48 -11 -50 -14 -59 -54 -5 -26 -5 -60 0 -85 l9 -43 270 -3 c306 -3 296 -5 294 77 -2 81 -9 95 -63 108 -82 20 -76 -11 -76 430 0 253 4 401 10 414 9 17 22 19 99 19 99 0 101 -2 101 -70 0 -55 25 -70 120 -70 120 0 120 -1 120 185 0 126 -3 156 -16 169 -14 14 -80 16 -583 16 -428 0 -570 -3 -579 -12z"/> <path d="M5222 5218 c-16 -16 -16 -142 1 -156 6 -5 32 -16 57 -23 25 -7 48 -18 52 -24 4 -5 8 -197 8 -426 0 -466 6 -432 -77 -453 l-48 -12 -3 -74 c-2 -62 0 -77 14 -87 13 -10 82 -13 270 -13 298 0 288 -3 279 94 -9 83 -8 83 -52 90 -59 10 -93 27 -93 45 -5 226 -9 337 -15 482 -12 256 3 270 76 71 23 -64 45 -121 49 -127 4 -5 15 -35 25 -65 10 -30 33 -95 53 -145 50 -130 82 -212 104 -275 10 -30 26 -69 34 -87 7 -17 14 -36 14 -41 0 -6 7 -18 16 -26 12 -12 37 -16 109 -16 51 0 101 3 110 6 20 8 38 43 74 146 16 46 59 162 95 258 36 96 66 179 66 184 0 5 13 39 29 75 15 36 34 84 41 106 19 63 62 155 71 155 12 0 12 4 10 -370 -2 -256 -6 -338 -15 -348 -7 -8 -33 -18 -57 -23 -63 -14 -69 -23 -69 -95 0 -98 -12 -94 289 -94 186 0 260 3 269 12 16 16 16 142 0 156 -7 5 -32 15 -54 21 -23 6 -47 17 -53 25 -8 9 -10 134 -9 437 l3 424 48 12 c27 6 55 17 63 24 18 15 20 139 2 157 -18 18 -561 17 -576 -1 -6 -7 -34 -76 -62 -153 -28 -76 -54 -148 -59 -159 -10 -21 -36 -100 -51 -150 -12 -40 -88 -250 -107 -297 -17 -41 -49 -52 -59 -20 -3 9 -16 46 -29 82 -13 36 -49 135 -80 220 -46 129 -101 280 -158 433 -21 58 -15 57 -316 57 -202 0 -280 -3 -289 -12z"/> <path d="M7174 7391 c-67 -31 -135 -95 -165 -153 -23 -45 -25 -127 -4 -168 15 -29 65 -72 98 -83 24 -9 21 -22 -10 -47 -19 -15 -35 -19 -53 -15 -45 12 -90 46 -111 86 -10 21 -26 39 -35 39 -26 0 -54 -20 -54 -38 0 -28 68 -120 111 -152 62 -44 100 -54 160 -40 44 11 67 28 202 156 144 137 154 144 185 138 37 -6 62 9 62 35 0 21 -79 98 -105 103 -13 2 -29 22 -45 56 -30 62 -94 112 -144 112 -17 0 -58 -13 -92 -29z m146 -101 c10 -5 24 -25 30 -44 9 -28 8 -40 -4 -65 -18 -35 -140 -141 -162 -141 -24 0 -71 28 -78 45 -17 45 -6 87 35 133 63 72 129 99 179 72z"/> <path d="M1670 7349 c-102 -45 -147 -164 -101 -265 43 -96 150 -174 237 -174 61 0 132 41 177 101 62 84 70 130 27 144 -27 8 -34 3 -75 -59 -37 -55 -67 -76 -114 -76 -53 0 -73 61 -28 87 20 11 127 138 127 150 0 21 -75 83 -119 98 -58 20 -77 19 -131 -6z m98 -95 c12 -8 22 -21 22 -28 0 -20 -88 -108 -103 -104 -21 7 -39 57 -32 88 12 54 68 76 113 44z"/> <path d="M7607 7048 c-12 -6 -17 -22 -17 -51 0 -37 -14 -63 -110 -209 -114 -173 -130 -188 -183 -174 -13 3 -34 15 -47 26 -29 25 -52 25 -74 2 -33 -37 13 -103 91 -130 26 -8 53 -6 145 14 62 14 133 29 158 33 25 4 86 20 137 34 96 28 157 34 168 17 10 -17 34 -11 45 11 10 17 4 31 -35 89 -26 38 -53 75 -62 81 -20 17 -47 0 -51 -34 -4 -35 -14 -41 -115 -66 -86 -21 -107 -21 -107 1 0 16 111 158 124 159 6 0 27 1 46 2 53 3 50 30 -15 118 -59 82 -72 92 -98 77z"/> <path d="M1201 7005 l-23 -35 36 -40 c40 -45 40 -44 26 -70 -7 -14 -5 -24 9 -42 19 -23 20 -23 49 -5 17 9 34 17 39 17 5 0 52 -32 104 -71 52 -39 111 -80 133 -91 37 -19 40 -19 76 -3 21 10 53 32 70 50 38 39 37 72 -1 94 -25 14 -29 13 -59 -12 -32 -27 -33 -27 -59 -10 -24 16 -166 125 -184 143 -5 4 -1 22 7 39 31 59 -17 94 -70 52 -26 -20 -62 -18 -71 5 -10 28 -57 16 -82 -21z"/> <path d="M1101 6644 c-21 -37 -37 -73 -34 -80 8 -20 41 -27 72 -15 30 13 63 1 171 -63 69 -40 86 -71 66 -120 -15 -37 -41 -56 -76 -56 -12 0 -82 34 -156 76 -73 42 -137 73 -143 70 -21 -13 -72 -118 -66 -137 7 -20 34 -24 70 -10 21 8 53 -5 110 -45 47 -33 126 -65 175 -70 89 -10 159 60 160 157 0 42 3 48 25 53 33 8 87 91 83 126 -3 26 -15 29 -83 15 -25 -5 -53 8 -175 79 -79 48 -148 86 -152 86 -4 0 -25 -30 -47 -66z"/> <path d="M8140 6260 c-19 -10 -51 -34 -69 -54 -39 -40 -51 -43 -86 -20 -37 24 -142 24 -179 -1 -99 -66 -99 -211 1 -326 24 -27 31 -46 35 -91 4 -54 27 -98 49 -98 5 0 17 17 26 38 l18 37 87 5 c103 6 128 22 112 67 -9 26 -14 28 -67 31 -67 4 -70 11 -32 90 35 72 52 79 116 46 40 -20 60 -24 86 -19 92 17 128 63 121 156 -5 71 -27 105 -88 137 -53 27 -84 27 -130 2z m108 -106 c44 -30 14 -104 -42 -104 -19 0 -86 39 -86 50 0 14 70 70 88 70 10 0 28 -7 40 -16z m-279 -78 c10 -12 5 -30 -25 -90 -20 -42 -42 -76 -48 -76 -32 1 -66 55 -66 104 0 39 43 76 88 76 22 0 45 -6 51 -14z"/> <path d="M858 6168 c-25 -32 -25 -32 -67 -18 -39 12 -43 12 -60 -6 -11 -10 -22 -33 -26 -51 -6 -30 -4 -33 31 -50 29 -13 40 -26 45 -49 3 -17 9 -36 13 -42 10 -17 51 -15 66 3 17 21 58 19 105 -5 69 -36 175 -70 215 -70 48 0 90 37 109 97 17 50 10 70 -24 79 -22 5 -31 1 -54 -26 -21 -26 -33 -32 -52 -28 -32 8 -201 79 -214 90 -5 5 -10 30 -10 56 0 43 -2 47 -26 50 -19 2 -32 -5 -51 -30z"/> <path d="M512 5867 c-7 -8 -14 -35 -15 -58 -2 -39 1 -44 26 -53 38 -14 56 -1 74 53 17 50 11 59 -38 67 -24 4 -39 1 -47 -9z"/> <path d="M723 5814 c-15 -7 -57 -138 -50 -158 9 -23 45 -20 78 9 l30 24 87 -30 c180 -63 172 -59 172 -84 0 -27 22 -48 47 -43 21 4 35 32 64 125 17 60 19 76 9 88 -14 17 -50 11 -63 -11 -10 -18 -48 -18 -89 0 -36 15 -260 87 -268 85 -3 0 -10 -3 -17 -5z"/> <path d="M634 5523 c-13 -42 -21 -48 -70 -48 -44 0 -50 -3 -63 -29 -19 -41 -5 -80 32 -84 29 -4 57 -35 57 -64 0 -11 10 -20 27 -24 21 -6 31 -2 49 21 l23 29 88 -18 c48 -10 106 -22 128 -27 101 -21 147 2 178 89 23 62 16 88 -23 94 -35 5 -40 2 -60 -37 -21 -40 -50 -42 -180 -8 l-105 28 -3 40 c-2 22 -9 43 -15 47 -22 14 -57 8 -63 -9z"/> <path d="M8536 5463 c-4 -5 -14 -22 -21 -39 -12 -30 -17 -32 -77 -39 -34 -3 -88 -10 -118 -15 -30 -5 -101 -12 -156 -16 l-102 -7 -17 27 c-13 20 -25 26 -44 24 -26 -3 -26 -4 -23 -73 1 -38 8 -92 15 -120 10 -43 15 -50 37 -50 19 0 29 9 42 37 20 41 19 41 153 60 108 15 188 16 195 4 4 -8 -59 -45 -325 -191 -57 -31 -60 -35 -63 -75 -2 -24 1 -47 6 -52 10 -10 134 -44 212 -59 67 -12 221 -65 221 -75 0 -10 -29 -15 -198 -39 -144 -19 -140 -20 -155 13 -17 35 -63 43 -73 12 -8 -24 13 -185 27 -213 15 -28 51 -17 67 21 17 37 20 38 151 52 52 5 139 15 193 21 l99 11 27 -26 c15 -14 34 -26 43 -26 30 0 37 22 28 100 -5 41 -9 85 -10 98 0 40 -32 57 -156 87 -185 44 -264 64 -275 71 -32 19 22 54 318 206 23 12 45 28 48 36 10 27 -8 213 -22 228 -16 15 -35 18 -47 7z"/> <path d="M578 5128 c-39 -61 -49 -189 -19 -253 31 -69 126 -95 184 -51 10 8 39 54 65 102 26 48 55 92 65 98 25 16 50 -4 62 -48 12 -48 -6 -83 -58 -111 -28 -15 -37 -26 -37 -47 0 -27 5 -30 68 -43 46 -9 67 13 92 93 36 115 23 199 -37 245 -39 29 -106 37 -144 17 -23 -13 -63 -74 -86 -132 -20 -53 -41 -78 -64 -78 -29 0 -49 29 -49 69 0 40 18 63 57 75 27 9 40 50 23 71 -8 9 -30 15 -60 15 -38 0 -51 -4 -62 -22z"/> <path d="M913 4688 c-4 -7 -13 -22 -18 -33 -10 -18 -24 -21 -145 -26 -76 -3 -145 -10 -157 -17 -13 -7 -34 -29 -48 -50 -33 -49 -34 -109 0 -166 l25 -43 -20 -26 c-15 -19 -20 -40 -20 -91 0 -62 2 -67 26 -78 24 -11 28 -10 45 12 45 62 40 60 170 60 l121 0 26 -30 c29 -33 53 -38 72 -15 10 11 11 39 6 107 -4 50 -9 95 -12 100 -11 17 -51 7 -74 -20 -25 -28 -28 -29 -139 -30 -72 -2 -119 2 -127 9 -23 19 -36 84 -23 113 16 33 26 37 151 43 105 6 107 6 139 -21 56 -48 64 -37 64 94 l0 115 -27 3 c-14 2 -30 -3 -35 -10z"/> <path d="M8114 4469 c-11 -6 -33 -29 -47 -52 -31 -47 -35 -99 -12 -153 14 -34 13 -38 -5 -61 -24 -30 -30 -152 -7 -154 26 -3 43 3 65 24 21 20 26 20 136 9 97 -10 120 -10 156 3 55 19 67 30 91 76 25 49 27 195 4 239 -14 28 -20 30 -69 30 -45 0 -54 -3 -59 -20 -8 -31 3 -57 29 -69 38 -17 49 -51 30 -94 -17 -43 -56 -63 -87 -47 -16 9 -19 22 -19 73 -1 88 -34 166 -80 189 -38 20 -93 22 -126 7z m107 -139 c26 -26 29 -34 23 -67 -11 -67 -55 -78 -101 -27 -30 33 -29 69 2 99 31 32 40 31 76 -5z"/> <path d="M941 4081 c-11 -21 -26 -41 -33 -44 -8 -2 -61 -12 -118 -22 -58 -9 -145 -23 -193 -31 -95 -16 -121 -13 -137 17 -13 23 -58 26 -66 4 -4 -8 -1 -43 5 -78 5 -34 13 -81 16 -104 5 -30 12 -44 26 -48 24 -8 49 11 49 35 0 29 20 37 150 60 69 11 163 28 210 36 l85 15 25 -31 c27 -33 67 -40 77 -14 6 15 -11 135 -28 207 -13 51 -42 50 -68 -2z"/> <path d="M8006 3978 c-2 -7 -11 -37 -20 -67 -9 -30 -19 -71 -22 -92 -6 -34 -4 -40 20 -50 23 -11 29 -9 51 11 16 15 32 21 47 17 139 -31 195 -50 216 -73 26 -29 28 -54 7 -94 -21 -40 -54 -46 -144 -26 -110 25 -148 43 -160 77 -7 22 -16 29 -36 29 -14 0 -27 -6 -29 -12 -30 -118 -46 -200 -41 -208 10 -17 51 -11 70 10 23 26 29 25 156 -6 129 -33 183 -29 229 17 42 43 56 96 40 154 -13 45 -12 47 13 68 17 15 29 39 36 75 15 74 14 81 -15 88 -18 5 -32 0 -50 -17 -24 -22 -27 -23 -82 -10 -31 7 -77 17 -102 21 -70 13 -100 27 -110 54 -14 37 -66 61 -74 34z"/> <path d="M1092 3504 c-12 -8 -22 -24 -22 -34 0 -26 -30 -44 -128 -76 -102 -33 -132 -25 -151 37 -14 47 -24 52 -76 41 -59 -12 -59 -42 -1 -97 39 -38 43 -45 29 -56 -29 -25 19 -169 56 -169 23 0 32 12 40 54 6 27 14 34 71 54 204 71 200 71 220 46 17 -19 64 -14 68 8 5 28 -49 188 -68 198 -11 6 -24 4 -38 -6z"/> <path d="M7858 3367 c-44 -38 -60 -75 -59 -139 0 -40 -4 -51 -34 -81 -19 -19 -35 -45 -35 -56 0 -12 -6 -30 -12 -41 -10 -16 -10 -23 4 -37 14 -14 22 -15 43 -5 35 16 67 15 102 -3 54 -28 169 -65 200 -65 79 0 151 72 179 177 20 77 12 119 -29 143 -42 26 -63 25 -82 -4 -17 -26 -11 -50 19 -76 50 -41 -26 -144 -88 -120 -38 14 -41 34 -17 96 39 102 19 179 -55 221 -55 32 -92 29 -136 -10z m111 -123 c35 -45 4 -124 -49 -124 -35 0 -50 23 -50 75 0 52 15 75 50 75 19 0 35 -9 49 -26z"/> <path d="M1187 3199 c-9 -12 -13 -27 -10 -34 6 -18 -25 -37 -181 -115 -92 -46 -132 -71 -135 -84 -4 -22 47 -126 66 -133 23 -9 53 17 53 47 0 27 7 33 103 80 57 27 112 50 121 50 10 0 31 -9 47 -21 24 -17 29 -27 29 -64 0 -51 -3 -54 -173 -137 -65 -32 -120 -65 -124 -74 -6 -17 40 -112 65 -131 20 -17 52 1 52 30 0 34 10 42 85 77 98 46 173 98 190 131 35 67 9 164 -55 204 -37 23 -54 55 -30 55 17 0 11 27 -19 82 -33 59 -60 72 -84 37z"/> <path d="M7463 2968 c-17 -18 -45 -56 -62 -84 -26 -43 -31 -61 -31 -115 0 -60 3 -67 40 -110 35 -42 123 -101 265 -179 65 -36 105 -70 105 -90 0 -33 12 -50 36 -50 34 0 86 92 78 137 -5 28 -3 33 20 39 39 10 84 66 91 117 9 58 -11 104 -74 167 -148 147 -350 127 -379 -39 -9 -52 -20 -59 -53 -32 -20 16 -24 28 -24 70 0 46 4 54 43 93 48 49 50 60 22 88 -27 27 -41 25 -77 -12z m312 -203 c103 -49 142 -107 112 -171 -17 -35 -50 -50 -89 -41 -40 10 -153 84 -167 109 -18 31 -8 72 24 104 30 30 55 30 120 -1z"/> <path d="M1395 2637 c-73 -30 -116 -60 -161 -112 -43 -51 -48 -63 -52 -114 -5 -73 12 -109 73 -151 30 -21 45 -38 45 -53 0 -26 70 -131 91 -134 27 -5 42 15 43 58 1 42 2 44 82 99 44 30 124 85 177 123 98 68 114 75 148 57 25 -14 59 4 59 30 0 10 -28 57 -61 105 -59 81 -63 85 -83 72 -14 -10 -22 -27 -24 -55 -3 -35 -9 -44 -38 -62 -40 -25 -64 -20 -64 12 0 29 -26 67 -69 103 -38 33 -115 42 -166 22z m115 -112 c35 -18 50 -43 50 -83 0 -26 -12 -39 -82 -91 -93 -70 -125 -76 -163 -35 -51 55 -16 137 80 190 69 38 76 39 115 19z"/> <path d="M7345 2423 c-49 -25 -85 -64 -116 -125 -32 -64 -36 -90 -14 -108 25 -20 49 -6 77 45 39 72 71 97 121 93 68 -5 68 -24 -3 -116 -35 -46 -67 -85 -71 -88 -17 -10 -9 -51 14 -72 32 -30 106 -62 147 -62 94 0 190 102 190 204 0 25 -4 47 -9 50 -4 3 -11 19 -14 35 -14 69 -158 162 -247 160 -25 -1 -58 -8 -75 -16z m229 -205 c22 -31 20 -70 -5 -102 -18 -23 -28 -27 -62 -24 -59 4 -67 34 -22 89 19 22 35 45 35 50 0 18 39 8 54 -13z"/> <path d="M1767 2273 c-4 -3 -7 -26 -7 -49 0 -47 -7 -55 -170 -196 -41 -35 -76 -74 -78 -85 -2 -14 15 -40 53 -79 l56 -59 19 23 c13 16 17 32 13 55 -5 31 1 38 89 119 52 47 100 87 108 89 8 1 28 -1 44 -6 23 -6 32 -4 42 10 18 24 7 45 -64 119 -58 60 -88 77 -105 59z"/> <path d="M7074 2103 c-23 -21 -57 -53 -77 -71 -21 -19 -37 -39 -37 -45 0 -18 35 -36 58 -31 23 7 74 -35 144 -119 55 -66 59 -92 22 -136 -46 -55 -75 -43 -174 69 -65 74 -70 84 -70 125 0 38 -3 45 -20 45 -42 0 -160 -98 -160 -133 0 -22 23 -37 56 -37 38 0 59 -18 133 -108 58 -72 62 -97 25 -141 -45 -54 -68 -45 -164 61 -69 75 -73 83 -72 124 2 35 -2 45 -19 54 -25 14 -43 3 -126 -74 -49 -47 -56 -57 -47 -73 8 -12 26 -19 58 -21 44 -3 49 -6 109 -78 81 -98 135 -134 199 -134 41 0 54 5 88 36 25 23 40 45 40 60 0 12 4 34 10 48 8 22 16 26 50 26 61 0 118 40 143 101 19 43 24 49 51 49 23 0 45 13 84 49 46 42 52 52 43 69 -14 26 -38 34 -61 22 -10 -6 -23 -10 -28 -10 -6 0 -49 45 -97 100 -85 98 -87 100 -80 140 7 41 -5 70 -29 70 -7 0 -30 -17 -52 -37z"/> <path d="M1987 2042 c-19 -21 -22 -57 -7 -67 6 -3 10 -19 10 -34 0 -21 -18 -48 -66 -102 -82 -92 -97 -101 -140 -83 -18 8 -40 11 -48 8 -24 -9 -30 -43 -12 -63 22 -24 20 -53 -4 -84 -11 -14 -20 -31 -20 -39 0 -15 46 -68 60 -68 5 0 25 14 43 30 39 33 48 36 78 18 18 -11 23 -10 40 10 14 18 16 28 9 42 -19 35 -9 55 61 130 80 86 129 155 129 183 0 31 -30 85 -62 112 -35 30 -49 31 -71 7z"/> <path d="M1376 1834 c-14 -15 -26 -32 -26 -38 1 -15 57 -76 70 -76 12 0 60 49 60 61 0 11 -60 79 -70 79 -4 0 -19 -12 -34 -26z"/> <path d="M2211 1828 c-4 -13 -5 -36 0 -51 8 -29 -2 -70 -20 -81 -13 -9 -85 -115 -110 -164 -12 -23 -21 -52 -21 -64 2 -68 78 -137 151 -138 32 0 37 -4 45 -32 11 -38 96 -108 132 -108 30 0 39 26 19 59 -20 34 -14 47 71 158 73 96 78 101 122 105 30 3 35 7 35 29 0 20 -15 37 -68 78 -37 28 -77 51 -87 51 -25 0 -39 -27 -33 -67 4 -26 -3 -43 -40 -95 -95 -132 -138 -155 -191 -102 -40 40 -34 71 30 166 64 95 81 111 110 104 27 -7 58 25 50 52 -4 10 -16 24 -29 29 -12 6 -47 29 -77 52 -62 47 -77 50 -89 19z"/> <path d="M6333 1536 c-113 -36 -197 -135 -148 -176 18 -15 50 -5 72 24 45 56 124 76 164 40 35 -31 23 -50 -62 -101 -128 -77 -126 -74 -110 -120 18 -50 46 -80 103 -109 57 -29 69 -29 128 -6 72 28 86 39 114 86 98 167 -83 418 -261 362z m177 -257 c14 -24 5 -66 -17 -91 -33 -37 -123 -13 -123 32 0 19 85 80 112 80 10 0 22 -9 28 -21z"/> <path d="M2680 1495 c-9 -11 -9 -21 1 -48 11 -32 9 -39 -50 -151 -33 -65 -61 -130 -61 -145 0 -59 78 -137 170 -171 95 -35 134 -24 160 44 20 54 -16 67 -106 38 -57 -18 -115 34 -101 91 9 33 38 42 74 24 50 -25 127 -40 168 -33 26 5 51 20 72 43 28 29 33 42 33 81 0 55 -16 82 -73 123 -31 22 -51 29 -88 29 -41 0 -51 4 -65 26 -17 25 -81 64 -107 64 -8 0 -20 -7 -27 -15z m225 -165 c32 -26 12 -90 -32 -104 -26 -8 -97 25 -107 49 -7 20 8 50 32 65 21 13 87 6 107 -10z"/> <path d="M6020 1358 c-14 -6 -51 -22 -82 -36 -70 -30 -78 -58 -24 -87 27 -15 41 -36 76 -113 45 -102 49 -150 13 -178 -63 -49 -113 -19 -161 96 -33 81 -36 100 -30 180 2 27 -1 35 -16 38 -26 5 -157 -47 -178 -71 -23 -25 -9 -53 33 -62 21 -5 34 -16 44 -38 8 -18 33 -76 56 -131 47 -110 74 -136 143 -136 48 0 123 34 131 60 11 34 31 43 67 30 28 -9 41 -8 93 14 48 20 61 30 63 50 3 21 -2 26 -25 32 -57 12 -64 16 -80 47 -8 17 -30 73 -48 123 l-32 92 19 30 c15 25 17 35 8 51 -12 23 -32 25 -70 9z"/> <path d="M3140 1260 c-8 -15 -5 -25 18 -52 31 -37 43 -64 95 -219 19 -58 32 -111 29 -116 -12 -18 -185 -107 -232 -119 -83 -21 -80 -68 6 -92 27 -8 65 -21 85 -29 49 -20 83 -14 87 15 2 13 -2 29 -8 37 -13 15 2 55 21 55 5 0 45 20 89 45 85 48 120 56 120 28 -1 -10 -12 -49 -25 -88 -21 -61 -28 -71 -54 -78 -32 -8 -53 -49 -35 -67 5 -4 53 -23 108 -41 93 -31 99 -31 112 -15 14 19 9 41 -14 68 -23 27 -18 51 38 223 70 215 74 225 104 225 30 0 60 38 45 56 -6 7 -49 25 -97 39 -48 15 -93 29 -101 31 -17 5 -41 -14 -41 -32 0 -8 9 -22 20 -31 26 -22 26 -73 1 -105 -23 -28 -94 -63 -114 -55 -12 4 -67 156 -67 185 0 5 11 17 25 26 39 25 32 54 -17 76 -24 11 -53 20 -64 20 -12 0 -38 7 -57 15 -48 20 -64 19 -77 -5z"/> <path d="M5357 1138 c-20 -6 -42 -18 -47 -27 -13 -25 14 -61 46 -61 44 0 60 -17 78 -82 10 -35 25 -83 32 -107 21 -67 18 -90 -11 -97 -33 -8 -48 -36 -36 -67 9 -22 14 -25 49 -20 39 5 39 5 53 -38 16 -50 40 -60 91 -38 29 12 30 14 24 58 -5 39 -3 48 20 72 34 35 28 61 -16 75 -38 12 -46 30 -86 174 -27 99 -50 139 -89 156 -39 16 -54 16 -108 2z"/> <path d="M4493 1048 c-6 -7 -27 -47 -46 -89 -20 -41 -42 -80 -49 -86 -7 -6 -51 -17 -98 -23 -47 -6 -91 -16 -97 -22 -25 -20 -12 -50 46 -111 77 -81 84 -97 71 -146 -5 -21 -11 -66 -12 -101 -4 -98 9 -98 170 -9 l43 24 89 -47 c127 -68 141 -56 115 92 -10 62 -12 96 -5 108 5 9 37 44 70 77 59 60 73 92 47 113 -6 6 -50 16 -97 22 -47 6 -91 17 -99 25 -8 7 -32 51 -55 97 -42 84 -69 106 -93 76z"/> </g> </svg> 